<?xml version="1.0" encoding="UTF-8"?>
<svg id="Layer_1" data-name="Layer 1" xmlns="http://www.w3.org/2000/svg" viewBox="0 0 15000 15000">
  <defs>
    <style>
      .cls-1 {
        fill: none;
      }

      .cls-2 {
        fill: #8b3726;
      }

      .cls-3, .cls-4, .cls-5, .cls-6, .cls-7, .cls-8 {
        fill: #a67644;
      }

      .cls-9 {
        fill: #893625;
      }

      .cls-4 {
        letter-spacing: 1.55em;
      }

      .cls-4, .cls-10, .cls-5, .cls-6, .cls-7, .cls-8 {
        isolation: isolate;
      }

      .cls-4, .cls-5 {
        font-size: 511.01px;
      }

      .cls-4, .cls-5, .cls-6, .cls-7, .cls-8 {
        font-family: Geologica-SemiBold, Geologica;
        font-variation-settings: 'wght' 600, 'CRSV' 0, 'SHRP' 0, 'slnt' 0;
        font-weight: 600;
      }

      .cls-5 {
        letter-spacing: .53em;
      }

      .cls-11 {
        fill: #ecf5ea;
      }

      .cls-12 {
        fill: #fff;
      }

      .cls-13 {
        fill: #b08c6c;
      }

      .cls-6 {
        letter-spacing: 1.55em;
      }

      .cls-6, .cls-7, .cls-8 {
        font-size: 513.7px;
      }

      .cls-7 {
        letter-spacing: .53em;
      }

      .cls-8 {
        letter-spacing: .53em;
      }

      .cls-14 {
        fill: #f5f1e8;
      }
    </style>
  </defs>
  <rect class="cls-11" x="-581.15" y="-351.1" width="15083.76" height="15108.95"/>
  <g>
    <g class="cls-10">
      <text class="cls-8" transform="translate(3972.43 8032.56)"><tspan x="0" y="0">grill </tspan></text>
      <text class="cls-6" transform="translate(6504.71 8032.56)"><tspan x="0" y="0">&amp;</tspan></text>
      <text class="cls-7" transform="translate(7190.56 8032.56)"><tspan x="0" y="0">cuisine</tspan></text>
    </g>
    <g>
      <g>
        <rect class="cls-2" x="4518.58" y="6552.6" width="468.16" height="77.81" transform="translate(-3291.16 5437.05) rotate(-46.04)"/>
        <rect class="cls-2" x="4643.4" y="6669.79" width="464.07" height="77.47" transform="translate(-3341.6 5588.46) rotate(-46.23)"/>
        <rect class="cls-2" x="4395.6" y="6433.12" width="468.56" height="78.7" transform="translate(-3242.41 5308.14) rotate(-46.01)"/>
      </g>
      <path class="cls-2" d="M5908.91,6058.77c-38.69,43.31-84.74,80.25-136.68,103.59-37.01,16.61-77.03,26.42-119.36,26.56l-412.26,1.89c-8.34,0-16.47-6.66-18.64-10.59-9.11-15.91,123.7-153.07,144.45-172.21,20.4-18.86,47.38-28.81,65.81-57.05,7.85-12.06,16.68-22.57,26.14-32.24,18.93-19.49,40.09-35.47,59.3-52.92,24.95-22.7,39.95-53.33,66.66-74.99,26.98-21.87,26.7-61.69.35-83.82-20.33-17.03-37.29-34-56.22-52.64-16.05-15.77-38.55-22.01-59.02-18.01-13.39,2.59-26.01,9.67-35.25,21.37-36.72,46.26-66.86,91.47-103.24,142.91h-1306.94l.07-183.85.14-392.57,1529.76.14c242.78,22.15,428.03,207.96,464.27,446.88,21.52,141.65-14.43,281.27-109.34,387.52v.02Z"/>
      <path class="cls-2" d="M4290.93,6608.23c-4.2,46.67,17.69,74.05,48.18,103.26l345.15,330.69c23.64,22.65,65.12,23,89.59-2l387.2-395.64c60.89-62.22,74.47-138.69,22.05-214.4-21.84-31.53-59.38-53.04-80.43-91-12.37-22.29,16.8-71.75,43.15-72.01l682.85-4.32c142.26-1.39,269.6,42.4,360.39,158.59,107.13,137.12,132.98,521.37,53.94,692.48-63.77,138.07-209.63,363.39-380.51,375.19-115.89,8-462.89,4.15-578.84,4.26l-1259.5,1.26"/>
      <path class="cls-2" d="M5021.33,6187.61c-137.21,27.49-114.93-70.53-229.61-60.39-43.43,3.84-85.89,25.05-114.63,67.02l-324.62,338.68-328.23.04-.41-656.12,1195.06-.16c13.91,0,21.41,12.64,25.44,18.25,4.42,6.17,4.9,21.59-2.4,30.26l-220.61,262.4h0Z"/>
    </g>
    <path class="cls-2" d="M7576.39,7278.15l-331.75-920.33c-30.57-81.03-41.27-120.78-51.97-165.11h-399.02c-7.64,44.33-21.4,90.2-48.92,165.11l-330.22,920.33c-36.69,103.96-50.45,140.65-73.38,186.51h357.73c7.64-56.57,18.34-103.96,38.23-165.11l41.29-129.95h435.71l41.27,129.95c15.28,51.97,24.46,91.73,36.69,165.11h357.73c-19.86-42.8-44.33-105.48-73.38-186.51h0ZM6851.75,6912.78l142.17-458.65,145.25,458.65h-287.41Z"/>
    <path class="cls-2" d="M8397.27,6817.99c44.34,65.73,73.38,114.66,110.07,181.93-6.11-70.33-9.18-140.65-9.18-226.26v-348.56c0-100.9-3.06-156.35-12.23-226.67h325.64c-9.18,68.8-12.23,127.3-12.23,226.67v811.79c0,93.25,4.58,163.58,12.23,227.79h-334.8c-27.52-58.1-62.68-114.66-114.66-194.16l-282.83-426.54c-41.28-61.15-67.26-107.02-110.07-188.05,7.64,68.8,10.7,152.88,10.7,227.79v342.45c0,105.49,3.06,172.76,12.23,238.49h-325.64c9.18-59.62,12.23-126.89,12.23-240.02v-804.15c0-88.67-3.06-157.47-12.23-227.79h331.75c15.29,41.28,48.92,102.43,108.54,191.1l290.47,434.18h0Z"/>
    <path class="cls-2" d="M9426.35,5750.52c7.11,31.95,22.19,62.13,44.38,89.19h-153.09v1433.31c0,91.86,3.11,158.86,11.98,230.75h-337.7c9.32-71.89,11.98-134.46,11.98-230.75v-1433.31h-180.17c-96.29,0-122.46,1.33-230.75,10.65v-291.99c50.15,6.21,134.46,10.65,227.65,10.65h656.74c-7.54,7.54-14.19,15.53-19.96,23.96-16.42,24.85-27.52,51.47-32.4,78.54-4.88,26.18-4.43,52.81,1.33,78.99Z"/>
    <path class="cls-2" d="M10587.3,7494.27c-65.73-7.64-120.77-10.7-252.25-10.7h-481.57c-116.19,0-159,1.53-224.73,4.58,9.18-61.15,12.23-117.72,12.23-223.21v-834.73c0-94.78-3.06-148.29-12.23-223.21,62.68,3.06,105.49,4.58,224.73,4.58h487.69c103.96,0,155.93-3.06,227.79-10.7v285.88c-70.33-7.64-125.36-10.7-227.79-10.7h-397.49v224.73h330.22c100.9,0,137.59-1.53,229.32-10.7v282.83c-71.86-7.64-123.83-10.7-229.32-10.7h-330.22v256.84h394.43c116.19,0,183.45-3.06,249.2-10.7v285.88h-.01Z"/>
    <g>
      <g>
        <path class="cls-2" d="M10636.57,6149.63c.24-18.48-35.01,14.27-38.95,30.62l-60.79,252.11c-129.67-85.26-264.16-138.06-411.29-171.53-160.15-36.42-292.45-57.27-459.12-38.79l40.32-167.29c44.06,2.42,150.02,13.74,139.01-48.62-11.85-67.04-90.98,17.81-249.18-77.11-134.72-80.83-177.99-230.09-96.88-352.59,31.5-47.56,91.39-90.33,161.11-97.21,104.95-10.36,201.9,37.9,262.39,124.52,5.34,7.64,26.36,10.58,34.22,7.04,6.88-3.09,17.95-14.47,20.75-23.35,33.66-106.9,119.15-186.97,227.35-210.57,88.65-19.34,175.97,5.41,238.8,71.17,62.09,64.99,94.18,153.52,86.43,244.04-1.08,12.63,2.65,28.66,9.86,34.41,8.53,6.81,26.68,9.41,36.32,4.77,126.38-60.74,286.75,2.75,359.18,116.61,57.27,90.04,51.22,199.82-12.63,285.1-39.43,52.67-91.43,90.02-154.47,105.46-37.11,9.09-76.97.21-104.82-25.94-15.62-14.67-28-35.08-27.63-62.86h0Z"/>
        <path class="cls-2" d="M10530.38,6416.16c-60.48-38.78-122.37-71-188.81-98.3-66.77-27.45-136.71-49.31-213.78-66.84-121.12-27.55-225.25-45.9-339.73-45.9-35.97,0-71.61,1.78-108.49,5.43l35-145.23c.54.03,1.1.07,1.66.1,12.5.79,28.05,1.76,44.03,1.76,45.02,0,72.55-7.83,86.63-24.62,8.52-10.15,11.47-23.01,8.79-38.2-6.05-34.29-29.73-37.16-51.45-37.16-5.23,0-10.9.19-16.9.39-7.19.24-14.64.49-22.86.49-38.73,0-92.22-5.42-162.71-47.71-67.23-40.34-112.53-99.06-127.54-165.35-6.53-28.84-7.08-58.12-1.65-87.05,5.63-29.96,17.59-58.88,35.54-85.99,15.57-23.52,37.44-44.59,63.21-60.92,28.02-17.75,59.32-28.76,90.49-31.84,8.99-.89,18.1-1.34,27.06-1.34,89.7,0,172.11,44.32,226.09,121.6,7.08,10.13,24.22,12.83,33.25,12.83,5.37,0,9.86-.8,13.36-2.38,9.32-4.19,22.5-17.7,26.23-29.51,16.04-50.94,44.73-96.64,82.97-132.16,38.4-35.67,85.74-60.43,136.92-71.59,18.75-4.09,37.65-6.16,56.19-6.16,32.65,0,64.05,6.32,93.32,18.77,29.79,12.67,56.66,31.41,79.86,55.68,60.6,63.42,91.1,149.52,83.68,236.22-1.28,15.01,2.98,34.65,13.62,43.14,7.2,5.74,18.82,9.32,30.33,9.32,6.36,0,12.11-1.15,16.64-3.33,31.05-14.93,65.1-22.49,101.17-22.49,47.07,0,95.28,12.94,139.41,37.42,43.88,24.34,80.44,58.23,105.74,98.02,26.85,42.21,39.83,90.09,37.54,138.45-2.28,48.03-19.47,94.77-49.74,135.2-39.71,53.03-89.78,87.26-148.8,101.71-8.59,2.11-17.41,3.17-26.19,3.17-26.39,0-51.01-9.47-69.33-26.67-16.51-15.5-24.74-34.14-24.46-55.39.07-4.9-1.35-8.84-4.19-11.72-2.53-2.56-6-3.97-9.78-3.97-16.12,0-41.18,28.59-44.85,43.83l-57.45,238.27v.02Z"/>
        <path class="cls-14" d="M10517.34,6384.25c-53.93-32.88-109.18-60.81-168.12-85.03-67.82-27.87-138.79-50.07-216.97-67.85-122.44-27.85-227.84-46.4-344.19-46.4-27.51,0-54.66,1.02-82.35,3.08l24.49-101.61c9.33.49,19.55.9,30.05.9,51.43,0,83.86-10.11,102.07-31.81,12.35-14.73,16.91-33.61,13.19-54.64-9.5-53.8-54.39-53.8-71.28-53.8-5.57,0-11.4.19-17.57.4-7.03.23-14.3.47-22.18.47-36.13,0-86.1-5.1-152.35-44.84-62.47-37.48-104.47-91.65-118.26-152.53-5.92-26.13-6.43-52.67-1.5-78.88,5.13-27.3,16.08-53.74,32.53-78.59,14.02-21.17,33.79-40.2,57.19-55.02,25.38-16.08,53.64-26.04,81.7-28.81,8.34-.83,16.78-1.24,25.08-1.24,83.03,0,159.42,41.19,209.58,112.99,14.25,20.41,43.96,21.44,49.76,21.44,8.23,0,15.5-1.39,21.62-4.14,13.75-6.18,31.42-23.52,37.18-41.83,15-47.61,41.78-90.3,77.47-123.46,35.75-33.22,79.84-56.27,127.5-66.66,17.34-3.79,34.8-5.7,51.89-5.7,29.93,0,58.67,5.77,85.44,17.16,27.26,11.59,51.87,28.78,73.18,51.07,56.6,59.24,85.09,139.65,78.17,220.59-1.74,20.39,4.11,47.03,21.12,60.61,10.76,8.58,26.79,13.71,42.89,13.71,9.36,0,18.12-1.84,25.36-5.32,28.31-13.61,59.42-20.51,92.44-20.51,43.66,0,88.49,12.07,129.63,34.89,40.95,22.71,75.01,54.26,98.52,91.22,24.61,38.69,36.51,82.49,34.42,126.68-2.09,43.99-17.9,86.9-45.74,124.07-36.84,49.2-83.09,80.9-137.47,94.22-7.02,1.72-14.22,2.59-21.4,2.59-21.24,0-40.98-7.53-55.54-21.21-12.39-11.63-18.31-24.86-18.1-40.43.17-13.05-5.34-21.42-9.99-26.15-6.34-6.43-14.91-9.97-24.11-9.97-16.54,0-31.74,12.16-41.59,22.35-4.36,4.52-18.91,20.54-22.84,36.9l-50.9,211.08h0Z"/>
      </g>
      <path class="cls-3" d="M10525.07,6442.99c-414.17-281.02-852.83-196.83-852.83-196.83l-3.83,15.95s438.67-84.19,852.83,196.83l3.83-15.95Z"/>
      <path class="cls-3" d="M10525.07,6442.99c-414.17-281.02-852.83-196.83-852.83-196.83l-3.83,15.95s438.67-84.19,852.83,196.83l3.83-15.95Z"/>
      <path class="cls-12" d="M10525.07,6442.99c-414.17-281.02-852.83-196.83-852.83-196.83l-3.83,15.95s438.67-84.19,852.83,196.83l3.83-15.95Z"/>
    </g>
    <g>
      <path class="cls-1" d="M9521.76,5569.03h-39.49c-2.22,2.66-3.99,4.88-5.77,7.54-56.36,85.64-52.36,184.16.89,263.14h37.72"/>
      <path class="cls-1" d="M9515.11,5839.72h-24.85c-19.08-25.74-32.39-54.58-39.05-84.76-6.66-28.84-7.1-58.13-1.77-86.97,5.77-30.17,17.75-59.02,35.5-86.09,3.11-4.44,6.21-8.43,9.76-12.87h27.07"/>
    </g>
    <path class="cls-3" d="M5295.67,5850.75l33.05-48.67,67.94-90.08,46.22-58.66s17.78-16,42.67-12.44c24.89,3.56,49.77,26.66,56.88,35.56,7.11,8.88,51.55,46.22,51.55,46.22,0,0,12.44,37.33,3.56,53.32-8.88,16-42.67,40.88-44.44,46.22-1.77,5.33-24.89,37.33-30.22,39.11-5.33,1.77-23.89,23.44-52.83,47.27-28.94,23.83-44.93,52.28-44.93,52.28,0,0-19.55,21.33-35.56,30.22-16,8.88-106.66-95.99-106.66-104.88s2.45-30.04,12.78-35.47h-.01Z"/>
    <g>
      <polygon class="cls-11" points="5234.75 5935.78 5326.06 5827.82 5448.03 5928.62 5332.69 6052.11 5332.6 6034.96 5234.75 5935.78"/>
      <g>
        <path class="cls-11" d="M5241.52,5898.95c-.14-.21-.21-.34-.34-.48l.41.41s0,.07-.07.07h0Z"/>
        <path class="cls-11" d="M5142.12,6264.45l28.63-34.52,148-178.34,13.86-16.64-97.86-99.18s-.06-1.04-.12-2.76l-186.27,218.81c-27.37,32.1-71.62,45.92-111.47,32.12-50.83-17.47-61.72-66.05-143.45-59.32-42.81,3.6-84.82,24.2-113.42,65.35,0,.07-.07.14-.07.14l-322.11,331.84h-.07l-22.36,27.02c-36.56,44.14-33.04,109,8.11,148.99l338.23,328.17c23.15,22.61,64.06,23.15,88.34-1.3l384.32-387.71c60.45-61.06,74.27-136.3,23.05-211.34-21.29-31.23-58.2-52.62-78.7-90.21-11.96-21.92,15.53-40.81,42.41-70.71.28-.27.69-.13.97-.4v-.03ZM4496.94,6655.47l-53.58-52.39c-.55-.48-.54-1.38,0-1.86l321.13-328.46c.48-.55,1.39-.54,1.86,0l53.58,52.32c.55.55.54,1.38.06,1.93l-321.13,328.47c-.55.48-1.39.54-1.93,0h0ZM4619.07,6773.19c-.48.55-1.39.54-1.86.06l-52.96-51.75c-.55-.48-.54-1.38-.06-1.86l320.64-328.33c.55-.55,1.38-.54,1.93-.06l52.96,51.75c.55.49.54,1.39.06,1.87l-320.7,328.33h0ZM5058.11,6561.87l-316.82,326.48c-.49.48-1.39.54-1.86,0l-52.89-51.27c-.54-.55-.54-1.38-.05-1.93l316.75-326.48c.55-.55,1.39-.54,1.93-.06l52.89,51.34c.55.49.54,1.39.06,1.93h-.01Z"/>
      </g>
    </g>
  </g>
  <path class="cls-9" d="M7313.49,3584.24l-310.45-861.24c-28.61-75.83-38.63-113.02-48.65-154.52h-373.4c-7.15,41.49-20.03,84.41-45.78,154.52l-309.01,861.24c-34.34,97.29-47.22,131.62-68.68,174.54h334.77c7.15-52.94,17.17-97.28,35.77-154.51l38.64-121.6h407.73l38.63,121.6c14.29,48.63,22.89,85.84,34.33,154.51h334.77c-18.58-40.06-41.48-98.7-68.67-174.54ZM6635.36,3242.32l133.05-429.2,135.91,429.2h-268.96Z"/>
  <path class="cls-9" d="M8164.71,3153.61c41.49,61.52,68.67,107.3,103.01,170.25-5.72-65.81-8.58-131.62-8.58-211.74v-326.19c0-94.42-2.86-160.45-11.45-226.26h304.73c-8.58,64.38-11.44,133.27-11.44,226.26v759.68c0,87.27,4.29,153.08,11.44,213.17h-313.31c-25.75-54.36-58.66-107.3-107.3-181.69l-264.67-399.15c-38.63-57.23-62.95-100.15-103.01-175.97,7.15,64.38,10.01,143.06,10.01,213.17v320.47c0,98.71,2.86,161.66,11.45,223.18h-304.73c8.58-55.8,11.45-118.74,11.45-224.61v-752.52c0-82.98-2.86-147.36-11.45-213.17h310.45c14.31,38.63,45.78,95.85,101.58,178.83l271.82,406.3Z"/>
  <path class="cls-9" d="M9685.58,2241.42v6.74c-41.97-4.66-80.29-7.49-130.45-8.9-10.68-.3-21.91-.54-33.83-.71-17.92-.27-37.37-.4-58.9-.4h-161.66v1341.26c0,85.84,2.85,148.78,11.44,216.03h-316.18c8.58-67.26,11.44-125.91,11.44-216.03v-1341.26h-168.81c-90.13,0-114.45,1.42-216.03,10v-273.24c47.21,5.73,125.91,10.02,213.17,10.02h691.78c-1.65,2.26-3.23,4.53-4.75,6.81-6.25,9.44-11.71,19.03-16.38,28.75-29.63,61.44-28.46,127.67-.83,186.15.01.06.03.1.06.14,5.08,10.74,11.06,21.22,17.9,31.36h17.89c4.42,0,8.73,0,12.98.01,54.05.14,94.75,1.14,131.17,3.24Z"/>
  <path class="cls-9" d="M10571.42,3518.94v267.54c-61.51-7.15-113.01-10.02-236.05-10.02h-450.66c-108.72,0-148.78,1.42-210.3,4.29,8.59-57.22,11.46-110.16,11.46-208.88v-781.13c0-49.73-.9-87.32-3.2-123.11-.58-8.89-1.24-17.66-1.99-26.48h0s8.06-14.5,8.06-14.5l19.79-35.62,4.13-7.41h0c12.74.51,25.59.93,39.67,1.28h.03c32.73.85,72.11,1.26,132.35,1.26h456.39c97.28,0,145.93-2.85,213.17-10v91.9l-26.61,110.34c.47.31.92.62,1.38.93l10.64,7.21h0s-5.71,46.39-5.71,46.39l-1.06,8.55c-14.81-1.47-29.19-2.69-43.89-3.71-41.25-2.88-85.05-4.11-147.92-4.11h-371.98v210.3h309.02c94.43,0,128.76-1.42,214.59-10.02v264.68c-67.24-7.15-115.87-10.02-214.59-10.02h-309.02v240.34h369.11c108.72,0,171.67-2.86,233.19-10.02Z"/>
  <g>
    <g>
      <path class="cls-13" d="M9522.79,1991.76c-6.25,9.44-11.71,19.03-16.38,28.75,5.05-12.13,11.12-24.03,18.16-35.57h2.98c-1.65,2.26-3.23,4.53-4.75,6.81Z"/>
      <path class="cls-13" d="M10886.05,2512.58c-4.15,5.54-8.45,10.91-12.92,16.08-.06.07-.11.14-.17.2-.55.64-1.1,1.26-1.66,1.89-18.5,21.15-39.53,39.04-62.94,53.05-.07.04-.13.09-.2.13-20.46,12.22-42.71,21.47-66.66,27.34-2.79.68-5.62,1.26-8.44,1.72-32.24,5.35-65.69-3.5-89.65-26-14.63-13.73-26.21-32.83-25.86-58.83.02-1.11-.11-2.02-.35-2.75l-5.22-40.37s-32.68,19.46-57.71,107.71v75.31l-26.61,110.34c.47.31.92.62,1.38.93l10.64,7.21h0s5.52,3.75,5.52,3.75l-10.37,43.2-.86-.56-24.21-15.93-1.06-.69c-12.35-8.11-24.76-15.93-37.28-23.48-.21-.14-.41-.27-.62-.38-101.75-61.19-210.23-103.71-337.73-132.71-65.83-14.98-126.09-26.98-185.88-34.27-.13-.03-.27-.03-.4-.03-40.79-4.95-81.32-7.72-123.3-7.72-36.23,0-72.12,2-109.67,6.14-.35.04-.69.07-1.04.11l-24.06,2.67-4.71.52.09-.34,7.83-32.62,16.59-3.19,1.27-.24c.15-.03.55-.11,1.18-.23l1.68-6.94h0s34.75-144.23,34.75-144.23c41.24,2.27,140.4,12.85,130.1-45.5-11.09-62.74-85.15,16.66-233.19-72.17-31.73-19.05-58.04-42.14-78.46-67.88-.62-.78-1.23-1.55-1.82-2.34-3.12-4.02-6.08-8.1-8.9-12.23-10.68-.3-21.91-.54-33.83-.71-5.97-10.29-11.2-20.88-15.66-31.76,5.08,10.74,11.06,21.22,17.9,31.36h17.89c4.42,0,8.73,0,12.98.01-28.78-42.67-42.24-91.34-38.38-140.23.01-.11.01-.24.03-.35,2.91-35.94,15.17-71.98,37.6-105.84,1.3-1.95,2.64-3.89,4.04-5.83.59-.83,1.2-1.65,1.8-2.46,20.66-27.67,51.47-52.82,88.07-68.14,17.75-7.45,36.87-12.57,56.86-14.55,59.57-5.88,116.38,8.42,164.51,38.69,31.22,19.61,58.78,45.95,81.05,77.84,4.99,7.15,24.66,9.9,32.01,6.59,6.45-2.89,16.8-13.53,19.41-21.84,13.77-43.69,36.77-82.59,66.76-114.39.24-.25.47-.48.69-.71,38.56-40.65,88.6-69.58,145.31-81.96,28.19-6.15,56.24-7.53,83.28-4.26.24.03.46.06.71.08,52.29,6.46,100.82,30.33,139.48,70.78,58.1,60.81,88.12,143.67,80.89,228.38-1.02,11.82,2.48,26.81,9.23,32.2,7.99,6.38,24.97,8.8,33.99,4.47,31.08-14.93,64.35-21.84,97.75-21.98,58.06-.24,116.5,19.99,164.44,54.12,29.45,20.94,54.92,47.11,73.93,76.99,19.39,30.49,31.03,63.41,35.14,96.76,7.28,58.85-8.82,119.11-46.95,170.04Z"/>
      <path class="cls-13" d="M10886.05,2512.58c-3.94,5.36-8.25,10.74-12.92,16.08-.06.07-.11.14-.17.2-17.57,20.1-39.97,39.64-64.6,54.94-.07.04-.13.09-.2.13-23.73,14.7-49.52,25.48-75.1,29.06-31.66,4.43-63.01-2.16-89.65-26-14.63-13.73-26.21-32.83-25.86-58.83l-.35-2.75-5.22-40.37s-32.68,19.46-57.71,107.71c-12.3,43.34-22.76,103.27-26.61,185.66l-3.46,14.33c-225.01-147.65-547.63-223.6-814.52-196.8l1.3-5.38,1.68-6.94h0s34.75-144.23,34.75-144.23c41.24,2.27,140.4,12.85,130.1-45.5-11.09-62.74-85.15,16.66-233.19-72.17-31.03-17.85-57.63-41.11-78.46-67.88-.62-.78-1.23-1.55-1.82-2.34-3.05-4.01-5.95-8.08-8.73-12.23-.25-.35-.49-.72-.73-1.09-27.75-41.86-42.1-90.72-38.53-140.23.01-.11.01-.24.03-.35,2.62-35.75,14.6-71.83,37.6-105.84,1.33-1.97,2.67-3.92,4.04-5.83.59-.83,1.2-1.65,1.8-2.46,23.84-32.28,54.33-54.7,88.07-68.14,70.01-27.93,153.94-17.21,221.37,24.14,31.73,19.44,59.81,45.67,81.05,77.84,4.99,7.15,24.66,9.9,32.01,6.59,6.45-2.89,16.8-13.53,19.41-21.84,12.46-43.92,36.1-82.76,66.76-114.39.24-.25.47-.48.69-.71,59.98-61.47,146.49-95.49,228.59-86.22.24.03.46.06.71.08,50.64,5.85,99.54,28.22,139.48,70.78,58.1,60.81,88.12,143.67,80.89,228.38-1.02,11.82,2.48,26.81,9.23,32.2,7.99,6.38,24.97,8.8,33.99,4.47,32.28-14.56,65.32-21.46,97.75-21.98,59.75-.96,117.43,19.72,164.44,54.12,57.71,42.18,99.35,105.01,109.08,173.75,7.84,55.41-5.04,114.65-46.95,170.04Z"/>
      <path class="cls-12" d="M10501.35,2745.22c-89.34-53.07-193.7-97.23-304.58-128.68-124.84-35.41-255.54-54.13-377.95-54.13-24.52,0-48.81.75-72.57,2.25l23.06-95.69c8.74.47,18.32.84,28.17.84,30.27,0,73.11-3.08,95.48-29.75,8.05-9.6,16.73-26.24,12.34-51.08-8.89-50.3-50.86-50.3-66.66-50.3-5.21,0-10.66.18-16.44.37-6.57.22-13.37.45-20.74.45-33.82,0-80.6-4.77-142.61-41.98l-.45-.26c-27.62-15.89-51.26-36.33-70.26-60.75l-.23-.29c-.44-.55-.87-1.1-1.29-1.66l-.1-.14c-2.67-3.51-5.28-7.17-7.76-10.87l-.26-.38-.16-.22-.24-.37c-25.15-37.93-36.88-80.19-33.93-122.23l.05-.69c2.38-32.41,13.43-63.4,32.84-92.11,1.35-2.01,2.5-3.68,3.57-5.16.52-.73.98-1.34,1.43-1.95l.16-.21c19.78-26.78,45.29-46.53,75.82-58.7,22.51-8.98,47.01-13.54,72.81-13.54,42.2,0,86.01,12.61,123.36,35.52,29.09,17.82,54.07,41.8,72.26,69.34l.2.3.21.3c13.32,19.08,41.08,20.05,46.51,20.05,7.71,0,14.52-1.31,20.24-3.89,12.82-5.75,29.35-21.96,34.73-39.11l.12-.38.11-.38c10.67-37.62,31.38-73.05,59.88-102.45l.63-.64c48.4-49.6,116.2-79.22,181.36-79.22,8,0,16.01.45,23.81,1.32l.74.09c46.85,5.42,89.08,26.88,122.09,62.05l.17.18c52.98,55.45,79.65,130.71,73.17,206.48-1.63,19.03,3.83,43.94,19.73,56.64,10.07,8.04,25.06,12.83,40.12,12.83,8.7,0,16.54-1.61,23.32-4.78,27.54-12.38,56.59-18.91,86.37-19.39,1.18-.02,2.35-.03,3.53-.03,49.8,0,100.86,17.3,143.79,48.71,53.79,39.32,89.43,95.79,97.8,154.93,7.35,51.92-7.01,103.46-41.52,149.06l-.24.33c-3.46,4.71-7.31,9.5-11.43,14.22l-.48.55c-16.4,18.69-36.92,36.12-57.84,49.12l-.44.27-.2.14c-21.87,13.49-43.91,22.09-63.77,24.87-4.82.67-9.57,1.02-14.14,1.02-20.29,0-37.47-6.5-52.52-19.87-11.45-10.84-16.92-23.16-16.72-37.65l.03-1.99-.61-4.73-10.73-83-36.91,21.98c-7.07,4.21-43.68,29.98-70.42,124.25-12.69,44.71-21.34,98.48-25.77,160.17Z"/>
    </g>
    <path class="cls-12" d="M10545.2,2790.3l-10.37,43.2-1.92,7.99-5.38,22.39-33.76-22.9c-1.58-1.07-3.17-2.14-4.75-3.2-104.08-69.82-219.55-120.98-343.31-152.09-92.67-23.29-188.25-35.1-284.09-35.1-88.21,0-144.23,10.45-144.8,10.57l-34.16,6.49-8.73,1.65,6.74-28.13h0s3.34-13.98,3.34-13.98l.09-.34,7.83-32.62,16.59-3.19,1.27-.24c.15-.03.55-.11,1.18-.23,4.16-.75,18.51-3.23,41.35-5.66h.03c26.82-2.86,65.35-5.69,112.84-5.69,43.5,0,86.95,2.33,130.13,6.94,56.56,6.04,112.63,16.01,167.74,29.87,131.52,33.06,254.18,87.68,364.6,162.38.47.31.92.62,1.38.93l10.64,7.21h0s5.52,3.75,5.52,3.75Z"/>
    <path class="cls-9" d="M10513.2,2802.68c-387.57-262.98-798.08-184.19-798.08-184.19l-3.58,14.93s410.51-78.78,798.08,184.19l3.58-14.93Z"/>
  </g>
  <text class="cls-5" transform="translate(4020.98 4323.06)"><tspan x="0" y="0">grill </tspan></text>
  <text class="cls-4" transform="translate(6539.96 4323.06)"><tspan x="0" y="0">&amp;</tspan></text>
  <text class="cls-5" transform="translate(7222.21 4323.06)"><tspan x="0" y="0">cuisine</tspan></text>
  <g>
    <g>
      <g>
        <rect class="cls-9" x="4451.98" y="2905.28" width="438.1" height="72.82" transform="translate(-688.9 4262.01) rotate(-46.04)"/>
        <rect class="cls-9" x="4568.78" y="3015.03" width="434.27" height="72.49" transform="translate(-728.23 4396.45) rotate(-46.23)"/>
        <rect class="cls-9" x="4336.9" y="2793.48" width="438.48" height="73.65" transform="translate(-644.55 4142.51) rotate(-46.01)"/>
      </g>
      <path class="cls-9" d="M5753.05,2443.13c-36.2,40.53-79.3,75.1-127.9,96.94-34.63,15.55-72.08,24.73-111.7,24.86l-385.79,1.77c-7.81,0-15.41-6.23-17.45-9.9-8.53-14.89,115.76-143.25,135.18-161.15,19.09-17.64,44.34-26.96,61.59-53.39,7.35-11.28,15.61-21.12,24.46-30.17,17.71-18.24,37.52-33.19,55.49-49.52,23.35-21.25,37.39-49.91,62.38-70.18,25.25-20.46,24.99-57.72.33-78.44-19.02-15.94-34.89-31.81-52.6-49.26-15.02-14.76-36.07-20.59-55.23-16.86-12.53,2.42-24.33,9.05-32.99,20-34.37,43.29-62.57,85.6-96.62,133.74h-1223.04l.06-172.04.13-367.37,1431.55.13c227.2,20.73,400.55,194.61,434.46,418.2,20.14,132.56-13.51,263.21-102.32,362.64Z"/>
      <path class="cls-9" d="M4238.95,2957.32c-3.93,43.67,16.55,69.3,45.09,96.64l322.99,309.46c22.13,21.2,60.94,21.52,83.84-1.87l362.35-370.24c56.98-58.22,69.68-129.79,20.63-200.63-20.43-29.51-55.56-49.64-75.27-85.15-11.57-20.86,15.72-67.14,40.38-67.38l639.01-4.04c133.12-1.3,252.29,39.68,337.25,148.41,100.25,128.31,124.44,487.9,50.47,648.03-59.68,129.2-196.17,340.06-356.08,351.1-108.44,7.49-433.17,3.88-541.68,3.99l-1178.64,1.18,249.67-829.48Z"/>
      <path class="cls-9" d="M4922.45,2563.7c-128.4,25.72-107.55-66-214.87-56.51-40.65,3.59-80.38,23.44-107.27,62.72l-303.78,316.94-307.15.04-.38-614,1118.34-.15c13.01,0,20.04,11.83,23.81,17.08,4.14,5.78,4.58,20.2-2.24,28.32l-206.45,245.56Z"/>
    </g>
    <path class="cls-3" d="M5172.85,2244.48l33.05-48.67,67.94-90.08,46.22-58.66s17.78-16,42.67-12.44c24.89,3.56,49.77,26.66,56.88,35.56,7.11,8.88,51.55,46.22,51.55,46.22,0,0,12.44,37.33,3.56,53.32-8.88,16-42.67,40.88-44.44,46.22-1.77,5.33-24.89,37.33-30.22,39.11-5.33,1.77-23.89,23.44-52.83,47.27-28.94,23.83-44.93,52.28-44.93,52.28,0,0-19.55,21.33-35.56,30.22-16,8.88-106.66-95.99-106.66-104.88s2.45-30.04,12.78-35.47h-.01Z"/>
  </g>
</svg>